<?xml version="1.0" encoding="utf-8"?>
<!-- Generator: Adobe Illustrator 17.1.0, SVG Export Plug-In . SVG Version: 6.00 Build 0)  -->
<!DOCTYPE svg PUBLIC "-//W3C//DTD SVG 1.1//EN" "http://www.w3.org/Graphics/SVG/1.1/DTD/svg11.dtd">
<svg version="1.1" id="Ebene_1" xmlns="http://www.w3.org/2000/svg" xmlns:xlink="http://www.w3.org/1999/xlink" x="0px" y="0px"
	 viewBox="0 0 512 512" enable-background="new 0 0 512 512" xml:space="preserve">
<g id="Hilfslinien" display="none">
</g>
<g id="Icons_-">
	<path id="Discover__x2F__map-3-icon" fill="#3D3D3F" d="M462,406.9L415.1,360c6.9-10.8,10.8-23.6,10.8-37.4
		c0-38.6-31.4-69.9-69.9-69.9c-38.6,0-69.9,31.4-69.9,69.9s31.4,69.9,69.9,69.9c13,0,25.3-3.6,35.7-9.8l47.2,47.2L462,406.9z
		 M312.1,322.6c0-24.2,19.7-43.9,43.9-43.9c24.2,0,43.9,19.7,43.9,43.9c0,24.2-19.7,43.9-43.9,43.9
		C331.8,366.5,312.1,346.8,312.1,322.6z M256.3,327.5l-21-13.6V123.6l72.1,36.5v75.4c4.2-2.4,8.7-4.4,13.2-6.2v-69.8l66.1-33.5
		v101.7c9.5,3.1,18.5,7.6,26.5,13.3V82.1l-99.8,51.2l-84.5-43l-82.7,43L50,82.1v259.5l96.3,55l82.7-55l36.9,24
		C260.3,353.9,257,341.1,256.3,327.5z M139.1,362l-62.6-35.9V126l62.6,33.5V362z M222.7,313.9l-70.4,46.7V160.1l70.4-36.5
		L222.7,313.9L222.7,313.9z"/>
	<path id="Document__x2F__note-19-icon" display="none" d="M190.4,271.3h-56.3V250h56.3L190.4,271.3L190.4,271.3z M398,130.2
		L283.8,244.3l-47.5-47.4L350.5,82.7L398,130.2z M309.2,254c0,13.9,0,25,0,30.2c0,46-56.8,27.6-56.8,27.6s17.4,55.5-25.5,55.5
		c-23.4,0-35.1,0-121.4,0V125.1h167.7l29.2-29.2h-226v300.6h151c49.7,0,111.1-65,111.1-109.8v-61.9L309.2,254z M223.4,211.2l46.1,46
		L208.5,271L223.4,211.2z"/>
	<path id="Plan__x2F__navigation-10-icon" display="none" d="M320.6,103.1l61.8-22.7l-23,62.1l-7.5-31.6L320.6,103.1z M427,107.3
		c0,39.7-34.5,66-70.9,102.4c-36.4-36.4-70.9-62.7-70.9-102.4c0-39.1,31.7-70.9,70.9-70.9C395.3,36.5,427,68.2,427,107.3z
		 M405.6,105.2c0-27.3-22.1-49.4-49.4-49.4c-27.3,0-49.4,22.1-49.4,49.4c0,27.3,22.1,49.4,49.4,49.4
		C383.4,154.5,405.6,132.4,405.6,105.2z M356.2,258.8c8.3,0,14.9-6.7,14.9-14.9c0-8.3-6.7-14.9-14.9-14.9s-14.9,6.7-14.9,14.9
		S347.9,258.8,356.2,258.8z M388,209.9c-0.4,0.4-0.8,0.8-1.2,1.1v116.3L321,363.1v-79.3h-13.2v77.8l-71.9-46.5v-66.3h-12.6v66.3
		l-70.1,46.5v-77.8h-13.2v79.3l-62.4-35.8V127.9l62.4,33.3V228h13.2v-66.2l70.1-36.4v69.4h12.6v-69.4l34.3,17
		c-4.4-10.3-7-21.4-7.2-33.6l-33.4-16.6l-82.4,42.8l-96-51.1v258.6l96,54.8l82.4-54.8l84.2,54.8l99.5-54.8V184.6
		C405.4,193.1,396.8,201.4,388,209.9z M333,263.2l-6-17.2c-3.2,1.1-6.6,1.7-10.1,1.7c-4.2,0-8.3-0.8-12.1-2.5l-7.2,16.7
		c6.1,2.6,12.6,4,19.3,4C322.5,265.9,327.9,265,333,263.2z M282.3,253.5l9-15.8l-25.6-14.6l-9,15.8L282.3,253.5z M137.9,245.5
		l-6.3,17.1c5.4,2,11.1,3,16.9,3c6.4,0,12.6-1.2,18.5-3.7l-6.9-16.8c-3.7,1.5-7.6,2.3-11.6,2.3C144.9,247.4,141.3,246.8,137.9,245.5
		z M93.4,243.9c0,8.3,6.7,14.9,14.9,14.9c8.3,0,14.9-6.7,14.9-14.9c0-8.3-6.7-14.9-14.9-14.9C100.1,228.9,93.4,235.6,93.4,243.9z
		 M214.7,213.8l6.2,17.1c3.3-1.2,6.8-1.8,10.4-1.8c4.1,0,8,0.8,11.8,2.4l7-16.8c-6-2.5-12.3-3.8-18.8-3.8
		C225.6,210.9,220.1,211.9,214.7,213.8z M182.7,253.2l25.3-15.1l-9.3-15.6l-25.3,15.1L182.7,253.2z"/>
	<path id="Rate__x2F__star-2-outline-icon" display="none" d="M239.2,98.9l39.6,81.7l89.9,12.4l-65.4,62.9l16,89.3l-80-42.8
		l-80,42.8l16-89.3L109.7,193l89.9-12.4L239.2,98.9z M239.2,35.6l-58,119.7L49.5,173.4l95.9,92.2L122,396.5l117.3-62.7l117.3,62.7
		l-23.4-130.9l95.9-92.2l-131.7-18.2L239.2,35.6z"/>
	<path id="Book__x2F__shopping-cart-8-icon" display="none" d="M206.3,372.2c0,13-10.5,23.5-23.5,23.5c-13,0-23.5-10.5-23.5-23.5
		s10.5-23.5,23.5-23.5C195.7,348.7,206.3,359.2,206.3,372.2z M347.7,132.1L296,296.4H146.6L89.9,165.7H51.4l72.4,165.7h0.2h197.5
		L373.3,167h26.2l11.1-34.9L347.7,132.1L347.7,132.1z M260.4,348.7c-13,0-23.5,10.5-23.5,23.5c0,13,10.5,23.5,23.5,23.5
		c13,0,23.5-10.5,23.5-23.5C283.9,359.2,273.4,348.7,260.4,348.7z M188.9,208h-30.7l61.8,61.9l61.8-61.9h-30.7
		c0,0-8.3-84.6-108.7-108.8C201.3,137.9,188.9,208,188.9,208z"/>
	<path id="Share__x2F__share-icon" display="none" fill="none" stroke="#000000" stroke-width="24.3227" stroke-miterlimit="10" d="
		M304.7,149c-12.4,0-24,3.2-34.1,8.9c-6.6,3.8-14.8,3.5-21.3-0.6l-72-46.1c-5.6-3.6-9.1-9.6-9.5-16.2c-1.5-25.7-22.8-46.5-49.4-46.5
		c-27.3,0-49.5,22.1-49.5,49.5c0,35,35.3,58.6,67.4,46.1c6.1-2.4,13.1-1.7,18.6,1.8l62,39.7c11.2,7.2,18.1,19.7,18.2,33c0,0,0,0,0,0
		c0.1,12.9-6.5,25-17.4,32l-62.7,40.1c-5.6,3.6-12.5,4.2-18.6,1.8c-32.2-12.6-67.4,11.1-67.4,46.1c0,27.3,22.1,49.5,49.5,49.5
		c26.5,0,47.9-20.8,49.4-46.5c0.4-6.6,3.9-12.6,9.5-16.2l72-46.1c6.4-4.1,14.6-4.3,21.3-0.6c10.1,5.7,21.7,8.9,34.1,8.9
		c38.3,0,69.4-31.1,69.4-69.4C374.1,180.1,343,149,304.7,149z"/>
</g>
<g id="Icons_-_SoMe">
</g>
</svg>
