<?xml version="1.0" encoding="utf-8"?>
<!-- Generator: Adobe Illustrator 17.1.0, SVG Export Plug-In . SVG Version: 6.00 Build 0)  -->
<!DOCTYPE svg PUBLIC "-//W3C//DTD SVG 1.1//EN" "http://www.w3.org/Graphics/SVG/1.1/DTD/svg11.dtd">
<svg version="1.1" id="Icons_-_SoMe" xmlns="http://www.w3.org/2000/svg" xmlns:xlink="http://www.w3.org/1999/xlink" x="0px"
	 y="0px" viewBox="0 0 512 512" enable-background="new 0 0 512 512" xml:space="preserve">
<path id="facebook-circle-icon" display="none" d="M232,38.4c-99.7,0-180.5,80.8-180.5,180.5S132.3,399.4,232,399.4
	c99.7,0,180.5-80.8,180.5-180.5C412.5,119.2,331.7,38.4,232,38.4z M285.4,144.6c0,0-18.1,0-25.2,0c-8.9,0-10.8,3.6-10.8,12.9
	c0,7.7,0,22.3,0,22.3h36l-3.5,39.1h-32.5v116.7h-46.6V219.3h-24.2v-39.6h24.2c0,0,0-5.7,0-31.2c0-29.2,15.6-44.5,50.3-44.5
	c5.7,0,32.3,0,32.3,0L285.4,144.6L285.4,144.6z"/>
<path id="twitter-4-icon" display="none" d="M232,38.4c-99.7,0-180.5,80.8-180.5,180.5S132.3,399.4,232,399.4
	c99.7,0,180.5-80.8,180.5-180.5C412.5,119.2,331.7,38.4,232,38.4z M322.8,187.8c2.6,58.9-41.3,124.5-119,124.5
	c-23.6,0-45.6-6.9-64.2-18.8c22.2,2.6,44.4-3.5,62-17.3c-18.3-0.3-33.8-12.4-39.1-29.1c6.6,1.3,13,0.9,18.9-0.7
	c-20.1-4-34-22.2-33.6-41.6c5.6,3.1,12.1,5,19,5.2c-18.6-12.5-23.9-37.1-13-55.9c20.6,25.3,51.5,42,86.3,43.7
	c-6.1-26.2,13.8-51.4,40.8-51.4c12,0,22.9,5.1,30.6,13.2c9.5-1.9,18.5-5.4,26.6-10.2c-3.1,9.8-9.8,18-18.4,23.2
	c8.5-1,16.5-3.3,24-6.6C338.1,174.5,331,181.9,322.8,187.8z"/>
<path id="linkedin-circle-icon" display="none" d="M232,37.5c-99.7,0-180.5,80.8-180.5,180.5S132.3,398.5,232,398.5
	c99.7,0,180.5-80.8,180.5-180.5C412.5,118.3,331.7,37.5,232,37.5z M183.8,305.3h-39.6v-128h39.6V305.3z M163.8,160.5
	c-12.9,0-23.4-10.6-23.4-23.6c0-13,10.5-23.6,23.4-23.6c12.9,0,23.4,10.6,23.4,23.6C187.3,149.9,176.8,160.5,163.8,160.5z
	 M332.4,305.3h-39.4c0,0,0-48.8,0-67.2s-7-28.7-21.6-28.7c-15.9,0-24.1,10.7-24.1,28.7c0,19.7,0,67.2,0,67.2h-38v-128h38v17.2
	c0,0,11.4-21.1,38.6-21.1c27.1,0,46.6,16.6,46.6,50.9S332.4,305.3,332.4,305.3z"/>
<path id="google-plus-circle-icon" fill="#3D3D3F" d="M246.9,283.4c0,17.7-14.4,31.6-44.2,31.6c-23.3,0-40.2-14.8-40.2-32.5
	c0-17.4,19.8-32.4,43.1-32.1C231.4,250.4,246.9,266.5,246.9,283.4z M412.5,218c0,99.7-80.8,180.5-180.5,180.5
	c-99.7,0-180.5-80.8-180.5-180.5c0-99.7,80.8-180.5,180.5-180.5C331.7,37.5,412.5,118.3,412.5,218z M266.9,281.4
	c0-16.4-6.1-27.1-24.6-40.9c-18.8-13.7-23.4-21.4-5.4-35.3c10.1-7.8,17.2-18.2,17.2-31c0-14-5.7-26.7-16.5-32.9h15.2l13-13.6
	c0,0-48.9,0-58.1,0c-36.3,0-54,21.7-54,45.6c0,24.4,16.8,43.7,49.5,43.7c-5.1,10.2-3,19.7,5.3,26.5c-55.9,0-67.9,24.5-67.9,43.4
	c0,24.5,28.1,39,61.9,39C248.6,325.9,266.9,301.4,266.9,281.4z M342.7,157.1h-26.8v-26.8h-13.4v26.8h-26.8v13.4h26.8v26.8h13.4
	v-26.8h26.8V157.1z M230.7,175c-2.7-20.6-16.1-37.4-31.8-37.9c-15.7-0.5-26.2,15.3-23.5,35.8c2.7,20.6,17.6,34.9,33.2,35.4
	C224.4,208.8,233.4,195.5,230.7,175z"/>
</svg>
