<?xml version="1.0" encoding="utf-8"?>
<!-- Generator: Adobe Illustrator 17.1.0, SVG Export Plug-In . SVG Version: 6.00 Build 0)  -->
<!DOCTYPE svg PUBLIC "-//W3C//DTD SVG 1.1//EN" "http://www.w3.org/Graphics/SVG/1.1/DTD/svg11.dtd">
<svg version="1.1" id="Icons_-_SoMe" xmlns="http://www.w3.org/2000/svg" xmlns:xlink="http://www.w3.org/1999/xlink" x="0px"
	 y="0px" viewBox="0 0 512 512" enable-background="new 0 0 512 512" xml:space="preserve">
<path id="linkedin-circle-icon" fill="#3D3D3F" d="M232,37.5c-99.7,0-180.5,80.8-180.5,180.5S132.3,398.5,232,398.5
	c99.7,0,180.5-80.8,180.5-180.5C412.5,118.3,331.7,37.5,232,37.5z M183.8,305.3h-39.6v-128h39.6V305.3z M163.8,160.5
	c-12.9,0-23.4-10.6-23.4-23.6c0-13,10.5-23.6,23.4-23.6c12.9,0,23.4,10.6,23.4,23.6C187.3,149.9,176.8,160.5,163.8,160.5z
	 M332.4,305.3h-39.4c0,0,0-48.8,0-67.2s-7-28.7-21.6-28.7c-15.9,0-24.1,10.7-24.1,28.7c0,19.7,0,67.2,0,67.2h-38v-128h38v17.2
	c0,0,11.4-21.1,38.6-21.1c27.1,0,46.6,16.6,46.6,50.9S332.4,305.3,332.4,305.3z"/>
</svg>
