<svg xmlns="http://www.w3.org/2000/svg" xmlns:xlink="http://www.w3.org/1999/xlink" version="1.1" id="Logo_final" x="0px" y="0px" viewBox="0 0 477 221.332" enable-background="new 0 0 477 221.332" xml:space="preserve">
<g id="TF_6_">
	<path id="Track" fill="#675846" d="M51.5 57.676c5.029-3.781 10.32-6.346 15.873-7.692c5.554-1.346 11.121-2.079 16.703-2.199 c5.583-0.121 11.1 0.1 16.4 0.633c5.37 0.5 10.4 0.8 15.1 0.799c4.709-0.006 8.962-0.55 12.769-1.634 c3.806-1.079 6.969-3.35 9.496-6.813c-2.043 4.588-4.412 8.262-7.112 11.025c-2.701 2.763-5.615 4.852-8.74 6.3 c-3.125 1.417-6.431 2.285-9.908 2.604c-3.479 0.319-7.057 0.375-10.729 0.163c-2.219 1.22-4.075 3.447-5.567 6.7 c-1.494 3.246-2.806 7.082-3.936 11.509c-1.13 4.426-2.162 9.287-3.095 14.58c-0.935 5.294-1.965 10.665-3.092 16.1 c-1.127 5.446-2.444 10.723-3.953 15.837c-1.508 5.113-3.398 9.723-5.673 13.828c-2.273 4.107-4.996 7.529-8.164 10.3 c-3.17 2.736-7.007 4.396-11.514 4.973c-2.17 0.278-4.294 0.251-6.371-0.075c-2.077-0.328-3.886-1.052-5.429-2.169 s-2.716-2.663-3.519-4.637c-0.806-1.977-0.941-4.525-0.407-7.645c0.327-2.077 1.128-3.77 2.404-5.078 c1.274-1.309 2.759-2.272 4.469-2.863c1.995-0.689 5.6 9.4 5.1 9.908c-0.677 0.645-1.153 1.42-1.418 2.3 c-0.263 0.923-0.26 1.8 0 2.605c0.271 0.8 0.8 1.5 1.7 2.006c0.873 0.5 2.1 0.7 3.7 0.5 c2.17-0.278 4.003-1.678 5.507-4.202c1.499-2.525 2.803-5.767 3.907-9.725c1.104-3.958 2.099-8.452 2.981-13.484 c0.885-5.03 1.835-10.179 2.859-15.443c1.023-5.259 2.16-10.473 3.405-15.638c1.249-5.163 2.828-9.88 4.74-14.155 c1.914-4.271 4.188-7.872 6.825-10.795c2.637-2.923 5.848-4.84 9.634-5.751c-4.122-0.404-8.237-0.895-12.338-1.473 c-4.103-0.577-8.081-0.852-11.938-0.827c-3.856 0.03-17.892 0.441-26.298 10.919c-11.936 14.877-7.938 30.319-1.144 34.8 c5.351 3.5 12.9 2.8 10.9 3.871c-6.628 3.528-13.414 2.57-17.031 0.542c-9.771-5.477-8.707-16.3-7.141-21.632 c1.562-5.33 4.017-10.521 7.358-15.572C42.161 65.9 46.4 61.5 51.5 57.676z M224.644 104.4 c-0.803 2.234-1.812 3.943-3.028 5.116c-1.218 1.174-2.315 1.819-3.289 1.931c-0.974 0.121-1.871-0.159-2.693-0.846 s-1.553-1.604-2.183-2.766c-0.631-1.161-1.134-2.433-1.509-3.83c-0.375-1.396-0.635-2.742-0.79-4.043 c3.34-1.637 5.938-4.023 7.782-7.168c1.852-3.141 2.958-6.258 3.328-9.351c0.371-3.084-0.004-5.718-1.128-7.889 c-1.125-2.167-2.945-3.104-5.459-2.802c-2.111 0.251-3.992 1.218-5.643 2.898c-1.652 1.681-3.15 3.791-4.486 6.337l6.413-37.189 l-11.197 1.341l-9.134 53.071l-0.04 0.005c-1.42 3.301-3.041 6.25-4.869 8.854c-1.62 2.252-3.511 4.351-5.667 6.3 c-2.155 1.944-4.565 3.073-7.247 3.393c-1.7 0.206-3.064-0.511-4.086-2.161c-1.022-1.647-1.748-3.787-2.187-6.409 c-0.439-2.621-0.551-5.486-0.351-8.598c0.207-3.113 0.702-6.05 1.476-8.821c0.782-2.769 1.835-5.114 3.168-7.047 c1.333-1.927 2.938-3.005 4.805-3.229c1.54-0.184 2.8 0.2 3.7 1.042c0.925 0.9 1.5 1.9 1.8 3 c0.304 1.2 0.4 2.2 0.2 3.249c-0.167 1.007-0.575 1.548-1.229 1.624c-0.487 0.06-0.959-0.067-1.405-0.387 c-0.448-0.312-3.634 6.634-1.736 7.148c2.988 0.8 7.773-2.112 9.701-5.568c0.894-1.603 1.205-3.376 1.236-5.148 c0.04-1.771-0.319-3.399-1.078-4.867c-0.749-1.478-1.915-2.634-3.495-3.477c-1.581-0.834-3.551-1.117-5.906-0.834 c-4.549 0.543-8.428 2.163-11.645 4.852c-3.216 2.687-5.778 5.855-7.686 9.499c-1.916 3.644-3.121 7.514-3.616 11.6 c-0.44 3.641-0.346 7 0.3 9.993c-0.715 2.073-1.699 3.599-2.955 4.573c-1.317 1.022-2.438 1.465-3.356 1.3 c-0.671-0.079-1.182-0.533-1.524-1.356c-0.347-0.821-0.215-2.834 0.387-6.033c0.295-1.682 0.734-4.184 1.329-7.507 c0.586-3.323 1.178-6.659 1.76-10.028c0.683-3.946 1.413-8.15 2.199-12.61c-2.825-0.895-5.862-0.982-9.106-0.265 c-3.248 0.719-6.413 2.123-9.497 4.224c-3.015 2.051-5.772 4.719-8.283 8.005c-0.373 0.123-0.751 0.232-1.137 0.3 c-1.277 0.275-4.11 0.575-7.598-0.442c-6.58-1.92-7.969-6.401-7.782-7.406l-11.078 1.324l-8.332 48.034l11.078-1.325l6.401-34.31 c0.639 2.6 5.7 4 8 3.632c1.896-0.315 3.966-1.416 6.217-3.212c0.134-0.106 0.268-0.226 0.403-0.338 c-0.867 1.828-1.615 3.767-2.232 5.832c-1.365 4.442-2.204 8.289-2.51 11.538c-0.312 3.246-0.224 5.9 0.3 7.9 c0.491 2 1.3 3.5 2.5 4.395c1.177 0.9 2.5 1.2 4.1 1.054c2.19-0.263 4.349-1.152 6.468-2.69 c2.119-1.524 3.93-3.285 5.419-5.276c0.47 2.6 1.4 4.2 2.8 4.914c1.4 0.7 2.8 1 4.3 0.8 c1.05-0.124 2.223-0.514 3.5-1.161c1.281-0.647 2.566-1.605 3.855-2.87c1.289-1.266 2.478-2.845 3.568-4.745 c0.603-1.051 1.135-2.226 1.611-3.502c0.914 2.5 2.3 4.7 4.3 6.332c2.338 2 5.4 2.8 9.2 2.4 c2.107-0.248 4.054-0.811 5.842-1.684c1.788-0.87 3.432-1.933 4.932-3.185c1.493-1.244 2.85-2.626 4.07-4.126 c1.221-1.509 2.307-3.057 3.272-4.653c0.713-1.109 1.363-2.282 1.985-3.484l-2.675 15.543l11.078-1.325l3.108-18.395 c0.355 1.6 0.8 3.4 1.4 5.327c0.562 2 1.3 3.8 2.2 5.479c0.898 1.7 2 3.1 3.2 4.2 c1.241 1.1 2.7 1.5 4.4 1.323c1.053-0.127 2.227-0.51 3.503-1.16c1.281-0.646 2.566-1.604 3.855-2.87 c1.289-1.265 2.497-2.85 3.631-4.753c1.129-1.904 2.031-4.178 2.701-6.807L224.644 104.438z M137.278 113.1 c-0.312 1.516-0.519 2.901-0.614 4.15c-0.591 0.563-1.337 1.206-2.239 1.933c-0.902 0.724-1.76 1.132-2.566 1.2 c-1.058 0.129-1.776-0.543-2.159-2.022c-0.383-1.472-0.49-3.396-0.315-5.765c0.164-2.363 0.599-4.926 1.297-7.686 c0.698-2.753 1.52-5.364 2.462-7.825c0.938-2.458 2.007-4.519 3.209-6.186c1.201-1.664 2.45-2.579 3.751-2.733 c0.483-0.057 0.982-0.037 1.5 0.071L137.278 113.145z M207.86 95.21c-1.421 1.896-3.204 3.141-5.355 3.728l0.547-2.659 c0.402-1.448 0.854-2.984 1.36-4.608c0.507-1.625 1.045-3.128 1.62-4.517c0.578-1.387 1.177-2.551 1.808-3.488 c0.627-0.938 1.306-1.453 2.036-1.541c1.053-0.123 1.7 0.6 1.9 2.062c0.179 1.501-0.064 3.241-0.734 5.2 C210.322 91.4 209.3 93.3 207.9 95.21z"/>
	<g id="Swing_5_">
		<path fill="#EB6D56" d="M427.812 88.04c0 0-0.46 0.327-1.352 0.959c-0.88 0.636-2.248 1.558-4.044 2.7 c-3.595 2.273-9.039 5.358-16.297 8.578c-7.244 3.246-16.293 6.607-26.869 9.784c-10.572 3.196-22.667 6.204-35.951 9 c-13.286 2.8-27.764 5.386-43.116 7.807c-15.352 2.439-31.589 4.622-48.383 6.822c-16.788 2.155-34.136 4.382-51.763 6.6 c-8.812 1.151-17.65 2.353-26.57 3.615c-8.931 1.215-17.847 2.404-26.748 3.736c-8.896 1.34-17.766 2.789-26.54 4.4 c-8.77 1.648-17.459 3.506-25.865 5.802c-4.194 1.154-8.327 2.416-12.25 3.904c-1.959 0.742-3.862 1.552-5.646 2.4 c-1.77 0.875-3.444 1.858-4.681 2.882c-0.604 0.503-1.098 1.023-1.335 1.402c-0.253 0.396-0.223 0.519-0.215 0.5 c-0.01-0.437 0 0.3 0.008-0.04c-0.001-0.076-0.021-0.186-0.028-0.231c-0.003-0.034-0.01-0.067-0.02-0.101 c-0.026-0.132-0.08-0.249-0.116-0.322c-0.073-0.15-0.104-0.133 0.012-0.043c0.214 0.2 0.8 0.6 1.5 0.8 c1.466 0.6 3.3 1.1 5.2 1.418c1.916 0.4 3.9 0.6 5.9 0.801c8.059 0.8 16.3 0.8 24.3 0.6 c8.024-0.19 15.894-0.697 23.541-1.307c7.645-0.636 15.069-1.466 22.182-2.523c3.568-0.54 7.006-1.096 10.444-1.751 c3.432-0.64 6.79-1.299 10.043-2.01c6.505-1.433 12.631-3.076 18.262-5.084c5.628-2.012 10.722-4.467 15.139-7.314 c8.907-5.648 14.623-13.225 17.723-20.19c3.14-6.995 4.129-13.139 4.682-17.269c0.255-2.08 0.387-3.689 0.455-4.774 c0.063-1.086 0.096-1.647 0.096-1.647l0.001-0.012c0.015-0.248 0.228-0.438 0.476-0.423c0.231 0 0.4 0.2 0.4 0.4 c0 0 0 0.6 0.1 1.667c0.049 1.1 0.1 2.7 0.1 4.878c-0.037 2.142-0.192 4.79-0.642 7.9 c-0.453 3.095-1.195 6.654-2.581 10.5c-1.374 3.839-3.38 7.984-6.321 12.017c-2.924 4.035-6.763 7.935-11.385 11.4 c-9.287 6.871-21.46 11.663-34.751 15.099c-3.328 0.878-6.723 1.695-10.186 2.495c-3.453 0.806-7.071 1.562-10.708 2.2 c-7.296 1.288-14.855 2.341-22.652 3.203c-7.796 0.878-15.836 1.478-24.095 1.805c-4.131 0.169-8.318 0.234-12.566 0.2 c-4.25-0.066-8.557-0.241-12.96-0.681c-2.202-0.233-4.428-0.533-6.704-0.972c-2.282-0.455-4.593-0.991-7.101-2.035 c-1.254-0.545-2.583-1.189-4.009-2.408c-0.702-0.609-1.452-1.421-2.049-2.516c-0.298-0.547-0.544-1.173-0.711-1.825l-0.107-0.497 c-0.034-0.178-0.064-0.422-0.085-0.632c-0.047-0.649-0.021-0.144-0.036-0.85c0.022-2.204 0.898-4.182 1.874-5.562 c0.99-1.418 2.084-2.417 3.162-3.29c2.167-1.702 4.337-2.856 6.503-3.891c2.166-1.02 4.341-1.855 6.518-2.622 c4.355-1.521 8.733-2.729 13.135-3.819c8.803-2.154 17.694-3.811 26.628-5.31c8.935-1.482 17.917-2.752 26.902-3.909 c8.979-1.171 17.981-2.204 26.891-3.248c8.909-1.091 17.843-2.135 26.674-3.121c17.669-1.932 35.058-3.833 51.885-5.673 c16.814-1.86 33.04-3.809 48.396-5.849c15.354-2.046 29.826-4.274 43.106-6.742c13.276-2.472 25.364-5.172 35.931-8.093 c10.568-2.91 19.618-6.014 26.885-9.015c7.275-2.987 12.745-5.887 16.361-8.036c1.812-1.075 3.161-1.929 4.071-2.548 c0.908-0.608 1.377-0.922 1.377-0.922c0.207-0.138 0.486-0.083 0.6 0.124C428.061 87.6 428 87.9 427.8 88.04z"/>
	</g>
	<path id="fellas" fill="#EB6D56" d="M386.874 65.718c7.629 2.7 17.422-8.647 4.392-14.674c-5.558-2.57-12.058-1.159-15.51-0.051 c-8.284 2.66-9.592 8.951-9.984 11.514c-0.551 3.58-0.475 8.9 8.9 14.846c6.887 4.4 6.8 11.6 3.1 15.2 c-1.121 1.099-2.408 1.794-4.205 1.786c-1.569-0.035-2.581-0.584-3.045-1.648c-0.464-1.063-0.52-2.119-0.158-3.167 c0.361-1.049 1.083-1.843 2.174-2.386c1.094-0.538 2.413-0.231 4 0.919c0.348-1.453 0.261-2.747-0.245-3.879 c-0.506-1.131-1.251-2.05-2.232-2.755c-0.975-0.701-2.096-1.165-3.354-1.389c-1.258-0.224-2.495-0.149-3.716 0.2 c-1.228 0.372-2.311 1.059-3.274 2.07c-0.961 1.009-1.6 2.39-1.916 4.143c-0.149 0.685-0.198 1.359-0.173 2 c-0.537 0.906-1.155 1.651-1.868 2.205c-1.32 1.022-2.441 1.461-3.359 1.324c-0.67-0.082-1.176-0.537-1.523-1.359 c-0.344-0.826-0.217-2.834 0.391-6.039c0.291-1.674 0.731-4.181 1.326-7.501c0.59-3.32 1.176-6.664 1.764-10.029 c0.676-3.946 1.408-8.152 2.193-12.605c-2.826-0.897-5.857-0.985-9.105-0.271c-3.25 0.718-6.414 2.127-9.498 4.2 c-3.086 2.1-5.898 4.845-8.461 8.237c-2.559 3.392-4.508 7.35-5.861 11.876c-1.365 4.445-2.199 8.293-2.512 11.5 c-0.074 0.791-0.125 1.544-0.152 2.263c-0.687 1.79-1.561 3.123-2.633 4.001c-1.236 1.012-2.322 1.449-3.238 1.3 c-0.672-0.084-1.174-0.539-1.525-1.365c-0.344-0.823-0.209-2.829 0.391-6.034c0.152-0.838 0.4-2.332 0.76-4.475 c0.367-2.138 0.797-4.7 1.307-7.681c0.504-2.984 1.062-6.261 1.662-9.832c0.605-3.568 1.229-7.124 1.875-10.655 c1.389-8.32 2.969-17.519 4.725-27.607l-11.078 1.325l-10.566 60.283c-0.188 1.081-0.329 2.087-0.432 3 c-0.704 2.007-1.631 3.486-2.785 4.431c-1.238 1.014-2.318 1.449-3.236 1.314c-0.67-0.084-1.178-0.539-1.523-1.361 c-0.346-0.826-0.217-2.834 0.389-6.038c0.148-0.838 0.4-2.332 0.76-4.475c0.361-2.139 0.799-4.701 1.305-7.682 c0.506-2.983 1.06-6.26 1.664-9.832c0.602-3.568 1.225-7.124 1.871-10.655c1.393-8.316 2.965-17.519 4.727-27.607l-11.08 1.3 l-9.131 52.092l-0.111 0.013c-1.465 3.423-3.146 6.522-5.032 9.312c-1.673 2.421-3.65 4.645-5.919 6.7 c-2.276 2.019-4.809 3.198-7.582 3.53c-2.359 0.281-4.047-0.626-5.065-2.72c-1.02-2.103-1.599-4.76-1.723-7.988 c3.584-0.004 6.746-0.833 9.494-2.483c2.749-1.651 5.024-3.697 6.82-6.134c1.806-2.434 3.088-5.062 3.859-7.888 c0.777-2.822 1.001-5.389 0.677-7.698c-0.314-2.311-1.24-4.184-2.779-5.622c-1.542-1.439-3.701-1.99-6.474-1.659 c-4.718 0.567-8.741 2.238-12.077 5.034c-3.337 2.784-5.993 6.071-7.971 9.85c-0.518 0.983-0.981 1.983-1.398 3 c-4.477-0.273-6.442-1.896-8.269-3.006c-2.056-1.254-4.39-3.545-4.964-6.052c0.104-0.614 0.205-1.241 0.31-1.845 c0.479-2.813 0.901-5.355 1.246-7.617c0.352-2.268 0.654-4.19 0.918-5.787c0.263-1.596 0.471-2.733 0.639-3.416 c0.694-3.782 1.803-6.943 3.312-9.47c1.508-2.526 3.311-3.914 5.427-4.166c1.54-0.188 2.8 0.2 3.7 1 c0.926 0.9 1.5 1.9 1.8 3.049c0.303 1.2 0.4 2.2 0.2 3.244c-0.167 1.009-0.574 1.552-1.228 1.6 c-0.486 0.061-0.95-0.068-1.396-0.387c-0.455-0.315-3.365 5.096-3.418 6.675c-0.053 1.6 6.4 0.3 8.069-0.81 c1.626-1.035 2.834-2.451 3.584-4.067c0.76-1.616 0.966-3.474 1.038-5.254c0.072-1.776-0.279-3.38-1.07-4.809 c-0.789-1.433-1.972-2.562-3.552-3.404c-1.587-0.838-3.59-1.114-6.024-0.822c-2.436 0.292-4.821 0.846-7.151 1.7 c-2.331 0.814-4.478 2.119-6.441 3.919c-1.971 1.795-3.719 4.19-5.259 7.17c-1.532 2.981-2.682 6.785-3.448 11.4 c-0.392 2.268-0.863 4.98-1.438 8.133c-0.566 3.157-1.173 6.546-1.804 10.157c-0.638 3.618-1.285 7.358-1.932 11.2 c-0.654 3.867-1.292 7.642-1.915 11.337c-1.517 8.659-4.2 27.052-4.2 27.052c-1.566 5.434-4.141 13.816-7.908 18.2 c-8.096 9.389-24.296 15.694-36.377 17.831c-1.402 0.248-31.517 13.25-12.391 10.094c38.733-6.392 62.794-22.954 67.413-47.39 c0 0 1.612-8.921 2.442-13.63c0.67-4.031 1.429-8.567 2.268-13.604c0.837-5.041 1.226-7.292 2.023-12.33 c0.623 2.5 6.5 3.8 8.5 3.603c2.354-0.278 3.58-1.112 5.217-2.449c-0.115 0.647-0.219 1.298-0.299 2 c-0.513 4.242-0.331 8.1 0.5 11.522c0.877 3.4 2.5 6.2 5 8.302c2.424 2.1 5.6 2.9 9.6 2.4 c2.102-0.251 4.082-0.826 5.935-1.734c1.854-0.905 3.559-2.005 5.116-3.298c1.548-1.296 2.954-2.722 4.222-4.281 c1.265-1.562 2.393-3.172 3.394-4.823c0.899-1.401 1.714-2.898 2.485-4.444l-0.044 0.253c-0.582 3.362-0.754 6.079-0.508 8.1 c0.248 2.1 0.7 3.6 1.5 4.697c0.744 1.1 1.6 1.8 2.7 2.084c1.065 0.3 2.2 0.4 3.3 0.3 c1.053-0.127 2.223-0.512 3.504-1.156c1.277-0.652 2.562-1.605 3.85-2.875c1.289-1.266 2.478-2.846 3.572-4.744 c0.17-0.297 0.325-0.62 0.485-0.935c0.252 2 0.7 3.6 1.5 4.605c0.74 1.1 1.6 1.8 2.7 2.1 c1.061 0.3 2.2 0.4 3.3 0.283c1.055-0.127 2.221-0.512 3.506-1.156c1.275-0.652 2.561-1.605 3.854-2.875 c1.285-1.264 2.475-2.844 3.566-4.744c0.21-0.369 0.406-0.763 0.602-1.159c0.061 0.4 0.1 0.8 0.2 1.1 c0.49 2 1.3 3.5 2.5 4.393c1.174 0.9 2.5 1.2 4.1 1.059c2.19-0.264 4.35-1.158 6.467-2.691 c2.123-1.527 3.932-3.287 5.42-5.277c0.471 2.6 1.4 4.2 2.8 4.91c1.398 0.7 2.8 1 4.3 0.8 c1.049-0.129 2.223-0.51 3.5-1.158c1.281-0.645 2.566-1.604 3.854-2.871c1.291-1.264 2.48-2.846 3.572-4.747 c0.171-0.299 0.327-0.622 0.487-0.939c0.539 1.2 1.3 2.3 2.3 3.207c1.137 1.1 2.5 1.9 4.1 2.5 c1.591 0.6 5.6 0.8 7.4 0.599c8.054-1.012 13.13-5.888 13.145-15.164c0.01-6.821-4.532-9.471-9.44-16.107 c-6.878-9.296 2.346-14.758 7.903-13.232c3.088 0.8 3.4 3 3.5 3.808C392.176 62.4 385.6 65.3 386.9 65.718z M264.903 82.785c0.571-2.712 1.274-5.183 2.119-7.418c0.845-2.238 1.797-4.101 2.856-5.596c1.059-1.489 2.137-2.3 3.228-2.433 c0.834-0.1 1.4 0.5 1.7 1.656c0.273 1.2 0.3 2.7 0.2 4.589c-0.166 1.857-0.571 3.846-1.209 6 c-0.645 2.128-1.456 4.08-2.433 5.86c-0.984 1.78-2.119 3.198-3.403 4.248c-1.282 1.049-2.664 1.406-4.154 1.1 C263.943 88.2 264.3 85.5 264.9 82.785z M344.192 85.939c-0.312 1.523-0.518 2.906-0.615 4.2 c-0.59 0.566-1.336 1.209-2.238 1.936c-0.897 0.723-1.76 1.137-2.566 1.232c-1.057 0.129-1.775-0.547-2.158-2.027 c-0.383-1.475-0.488-3.395-0.316-5.762c0.164-2.366 0.6-4.928 1.297-7.691c0.705-2.753 1.525-5.362 2.463-7.825 c0.938-2.458 2.008-4.517 3.209-6.185c1.201-1.668 2.451-2.578 3.752-2.734c0.482-0.06 0.98-0.035 1.5 0.072L344.192 85.939z M407.63 50.797c-3.029 3.124-7.219 3.982-9.363 1.904c-2.153-2.077-1.452-6.306 1.576-9.432c3.037-3.118 7.235-3.978 9.375-1.904 C411.361 43.4 410.7 47.7 407.6 50.797z M369.526 44.967c-1.288 0.021-2.312 1.558-2.286 3.4 c0.033 1.9 1.1 3.4 2.4 3.356c1.288-0.02 2.314-1.561 2.281-3.439C371.893 46.5 370.8 45 369.5 44.967z M376.862 39.247c-1.791-0.19-3.468 1.777-3.747 4.392c-0.277 2.6 1 4.9 2.8 5.08c1.785 0.2 3.472-1.781 3.739-4.395 C379.895 41.7 378.7 39.4 376.9 39.247z M385.613 37.297c-1.939-0.4-3.983 1.569-4.574 4.4 c-0.59 2.8 0.5 5.4 2.5 5.84c1.933 0.4 3.978-1.563 4.564-4.388C388.661 40.3 387.6 37.7 385.6 37.297z M395.608 36.622c-2.194-0.799-4.907 1.16-6.065 4.358c-1.155 3.195-0.305 6.4 1.9 7.218c2.197 0.8 4.908-1.147 6.067-4.35 C398.659 40.6 397.8 37.4 395.6 36.622z"/>
</g>
</svg>
