<?xml version="1.0" encoding="utf-8"?>
<!-- Generator: Adobe Illustrator 17.1.0, SVG Export Plug-In . SVG Version: 6.00 Build 0)  -->
<!DOCTYPE svg PUBLIC "-//W3C//DTD SVG 1.1//EN" "http://www.w3.org/Graphics/SVG/1.1/DTD/svg11.dtd">
<svg version="1.1" id="Ebene_1" xmlns="http://www.w3.org/2000/svg" xmlns:xlink="http://www.w3.org/1999/xlink" x="0px" y="0px"
	 viewBox="0 0 512 512" enable-background="new 0 0 512 512" xml:space="preserve">
<path id="share-icon" fill="none" stroke="#000000" stroke-miterlimit="10" d="M356.8,171.8c-15,0-29.1,3.9-41.3,10.8
	c-8.1,4.6-18,4.3-25.8-0.7L202.4,126c-6.7-4.3-11-11.6-11.5-19.6C189.1,75.3,163.2,50,131,50c-33.1,0-60,26.9-60,60
	c0,42.5,42.8,71.2,81.8,55.9c7.5-2.9,15.9-2.1,22.6,2.2l75.2,48.1c13.6,8.7,22,23.9,22,40.1c0,0,0,0,0,0
	c0.1,15.7-7.9,30.4-21.2,38.8l-76,48.7c-6.7,4.3-15.2,5.2-22.6,2.2C113.8,330.8,71,359.6,71,402c0,33.1,26.9,60,60,60
	c32.2,0,58.1-25.2,59.9-56.4c0.5-8,4.7-15.3,11.5-19.6l87.3-55.9c7.8-5,17.7-5.3,25.8-0.7c12.2,6.9,26.3,10.8,41.3,10.8
	c46.5,0,84.2-37.7,84.2-84.2C441,209.5,403.3,171.8,356.8,171.8z"/>
<path id="share-icon_1_" fill="none" stroke="#3D3D3F" stroke-width="30" stroke-miterlimit="10" d="M356.2,167.8
	c-15.3,0-29.6,4-42,11c-8.2,4.6-18.3,4.3-26.2-0.7l-88.8-56.8c-6.9-4.4-11.2-11.8-11.7-19.9C185.7,69.7,159.4,44,126.6,44
	c-33.7,0-61,27.3-61,61c0,43.2,43.5,72.3,83.2,56.8c7.6-3,16.1-2.1,23,2.3l76.4,48.9c13.9,8.9,22.3,24.3,22.4,40.7c0,0,0,0,0,0
	c0.1,16-8.1,30.9-21.5,39.5l-77.3,49.5c-6.8,4.4-15.4,5.2-23,2.3c-39.7-15.5-83.2,13.7-83.2,56.8c0,33.7,27.3,61,61,61
	c32.7,0,59-25.7,60.9-57.3c0.5-8.1,4.8-15.6,11.7-19.9l88.8-56.8c7.9-5.1,18-5.4,26.2-0.7c12.4,7,26.7,11,42,11
	c47.3,0,85.6-38.3,85.6-85.6C441.8,206.2,403.4,167.8,356.2,167.8z"/>
</svg>
