<?xml version="1.0" encoding="utf-8"?>
<!-- Generator: Adobe Illustrator 17.1.0, SVG Export Plug-In . SVG Version: 6.00 Build 0)  -->
<!DOCTYPE svg PUBLIC "-//W3C//DTD SVG 1.1//EN" "http://www.w3.org/Graphics/SVG/1.1/DTD/svg11.dtd">
<svg version="1.1" id="Icons_-_SoMe" xmlns="http://www.w3.org/2000/svg" xmlns:xlink="http://www.w3.org/1999/xlink" x="0px"
	 y="0px" viewBox="0 0 512 512" enable-background="new 0 0 512 512" xml:space="preserve">
<path id="twitter-4-icon" fill="#3D3D3F" d="M232,37.4c-99.7,0-180.5,80.8-180.5,180.5S132.3,398.4,232,398.4
	c99.7,0,180.5-80.8,180.5-180.5C412.5,118.2,331.7,37.4,232,37.4z M322.8,186.8c2.6,58.9-41.3,124.5-119,124.5
	c-23.6,0-45.6-6.9-64.2-18.8c22.2,2.6,44.4-3.5,62-17.3c-18.3-0.3-33.8-12.4-39.1-29.1c6.6,1.3,13,0.9,18.9-0.7
	c-20.1-4-34-22.2-33.6-41.6c5.6,3.1,12.1,5,19,5.2c-18.6-12.5-23.9-37.1-13-55.9c20.6,25.3,51.5,42,86.3,43.7
	c-6.1-26.2,13.8-51.4,40.8-51.4c12,0,22.9,5.1,30.6,13.2c9.5-1.9,18.5-5.4,26.6-10.2c-3.1,9.8-9.8,18-18.4,23.2
	c8.5-1,16.5-3.3,24-6.6C338.1,173.5,331,180.9,322.8,186.8z"/>
</svg>
