<?xml version="1.0" encoding="utf-8"?>
<!-- Generator: Adobe Illustrator 17.1.0, SVG Export Plug-In . SVG Version: 6.00 Build 0)  -->
<!DOCTYPE svg PUBLIC "-//W3C//DTD SVG 1.1//EN" "http://www.w3.org/Graphics/SVG/1.1/DTD/svg11.dtd">
<svg version="1.1" id="Icons_-_SoMe" xmlns="http://www.w3.org/2000/svg" xmlns:xlink="http://www.w3.org/1999/xlink" x="0px"
	 y="0px" viewBox="0 0 512 512" enable-background="new 0 0 512 512" xml:space="preserve">
<path id="facebook-circle-icon" fill="#3D3D3F" d="M232,37.4c-99.7,0-180.5,80.8-180.5,180.5S132.3,398.4,232,398.4
	c99.7,0,180.5-80.8,180.5-180.5C412.5,118.2,331.7,37.4,232,37.4z M285.4,143.6c0,0-18.1,0-25.2,0c-8.9,0-10.8,3.6-10.8,12.9
	c0,7.7,0,22.3,0,22.3h36l-3.5,39.1h-32.5v116.7h-46.6V218.3h-24.2v-39.6h24.2c0,0,0-5.7,0-31.2c0-29.2,15.6-44.5,50.3-44.5
	c5.7,0,32.3,0,32.3,0L285.4,143.6L285.4,143.6z"/>
</svg>
